<svg version="1.1" id="Capa_1" xmlns="http://www.w3.org/2000/svg" x="0" y="0" viewBox="0 0 468.293 468.293" style="enable-background:new 0 0 468.293 468.293" xml:space="preserve"><path style="fill:#3a556a" d="M384.96 69.299H0V17.627C0 10.73 5.591 5.139 12.488 5.139h359.984c6.897 0 12.488 5.591 12.488 12.488v51.672z"/><path style="fill:#e1e6e9" d="M372.472 377.267H12.488C5.591 377.267 0 371.676 0 364.779V69.299h384.96v295.48c0 6.897-5.591 12.488-12.488 12.488z"/><circle style="fill:#fcd462" cx="41.703" cy="37.22" r="16.041"/><circle style="fill:#27a2db" cx="93.034" cy="37.22" r="16.041"/><circle style="fill:#44c4a1" cx="144.359" cy="37.22" r="16.041"/><path style="fill:#27a2db" d="m439.864 346.904 28.429-6.996v-35.814l-28.43-6.996c-2.953-13.419-8.258-25.931-15.431-37.153l15.181-25.091-25.325-25.325-25.093 15.182c-11.221-7.173-23.732-12.476-37.15-15.429l-6.997-28.432h-35.815l-6.997 28.432c-13.42 2.953-25.931 8.258-37.154 15.431l-25.093-15.181-25.325 25.326 15.182 25.092c-7.172 11.222-12.477 23.732-15.429 37.15l-28.431 6.997v35.814l28.431 6.996c2.953 13.419 8.257 25.93 15.43 37.152l-15.18 25.091 25.325 25.325 25.09-15.18c11.223 7.173 23.735 12.479 37.155 15.431l6.996 28.427h35.815l6.996-28.427c13.421-2.953 25.934-8.258 37.156-15.432l25.089 15.178 25.324-25.325-15.18-25.088c7.173-11.222 12.478-23.735 15.431-37.155z"/><circle style="fill:#e1e6e9" cx="327.143" cy="321.998" r="89.825"/><circle style="fill:#1c75a1" cx="327.143" cy="321.998" r="51.325"/><path style="fill:#3a556a" d="m69.263 172.518-6.561 14.906H50.889l28.871-65.523h11.813l28.871 65.523h-11.809l-6.564-14.906H69.263zm28.31-10.214-11.905-26.998-11.905 26.998h23.81zM173.784 127.616c4.562 3.814 6.843 9.688 6.843 17.622 0 7.941-2.331 13.755-6.984 17.439-4.657 3.685-11.798 5.531-21.421 5.531H140.6v19.217h-11.062v-65.523h22.497c9.936 0 17.187 1.907 21.749 5.714zm-7.827 27.044c2.216-2.342 3.326-5.775 3.326-10.306 0-4.531-1.408-7.736-4.219-9.612-2.811-1.877-7.217-2.807-13.217-2.807h-11.249v26.243h12.843c6.123-.002 10.296-1.169 12.516-3.518zM193.656 121.902h11.062v65.523h-11.062v-65.523z"/><path style="fill:#e1e6e9" d="M347.497 49.707h-147.88c-6.897 0-12.488-5.591-12.488-12.488 0-6.897 5.591-12.488 12.488-12.488h147.879c6.897 0 12.488 5.591 12.488 12.488 0 6.897-5.591 12.488-12.487 12.488z"/></svg>